# xmcd
# 
# Track frame offsets:
#     150
#     12144
#     25384
#     37668
#     52311
#     64727
#     76763
#     90078
#     104077
#     117266
#     128873
#     141538
#     154526
#     166818
#     179945
#     193470
#     208094
#     222432
#     236872
#     251321
# 
# Disc length: 3537
# 
# Revision: 2
# Processed by: cddbd v1.5.2PL0 Copyright (c) Steve Scherf et al.
# Submitted via: BonkEnc v1.0.8
# 
DISCID=220dcf14
DTITLE=200 Blues Songs - Goin' Mad Blues [CD 9)
DYEAR=0
DGENRE=Blues
TTITLE0=Lightnin' Hopkins - Nightmare Blues
TTITLE1=T-Bone Walker - She's Going To Ruin Me
TTITLE2=Jimmy Yancey - State Street Special
TTITLE3=Big Joe Turner - Rocks In My Bed
TTITLE4=Big Joe Williams - His Spirit Lives On
TTITLE5=Robert Johnson - Last Fair Deal Gone Blues
TTITLE6=Memphis Slim - You Didn't Mean Me No Good
TTITLE7=Johnnie Temple - Lead Pencil Blues
TTITLE8=Sleepy John Estes - Mailman Blues
TTITLE9=Blind Boy Fuller - Double Trouble
TTITLE10=John Lee 'Sonny Boy' Williamson - Early In The Morning
TTITLE11=Mississippi John Hurt - Big Leg Blues
TTITLE12=Blind Boy Fuller and Sonny Terry - Bus Riders Blues
TTITLE13=Kokomo Arnold - Head Cuttin' Blues
TTITLE14=Arthur 'Big Boy' Crudup - She's Gone
TTITLE15=Hot Lips Page - You'd Be Frantic Too
TTITLE16=Leadbelly - Alberta
TTITLE17=Bessie Smith - Mean Old Bedbug Blues
TTITLE18=Big Bill Broonzy - Oh Baby (Don't Do Me That Way)
TTITLE19=Blind Willie McTell - Broke Down Engine
EXTD=
EXTT0=
EXTT1=
EXTT2=
EXTT3=
EXTT4=
EXTT5=
EXTT6=
EXTT7=
EXTT8=
EXTT9=
EXTT10=
EXTT11=
EXTT12=
EXTT13=
EXTT14=
EXTT15=
EXTT16=
EXTT17=
EXTT18=
EXTT19=
PLAYORDER=
